<mxfile modified="2020-10-06T00:54:41.990Z" host="app.diagrams.net" agent="5.0 (X11)" etag="O8ExtG4yICSsHWu5dDtu" version="13.7.7" type="github">
  <diagram id="Ht1M8jgEwFfnCIfOTk4-" name="Page-1">
    <mxGraphModel dx="998" dy="620" grid="1" gridSize="10" guides="1" tooltips="1" connect="1" arrows="1" fold="1" page="1" pageScale="1" pageWidth="1400" pageHeight="850" background="none" math="0" shadow="0">
      <root>
        <mxCell id="0" />
        <mxCell id="1" parent="0" />
        <mxCell id="KA_GjHDQiJicOzFnKSso-96" value="&lt;div&gt;&lt;font style=&quot;font-size: 22px&quot;&gt;Unmanageable&lt;/font&gt;&lt;/div&gt;&lt;div&gt;&lt;font style=&quot;font-size: 22px&quot;&gt;Password Proliferation &lt;/font&gt;&lt;/div&gt;" style="text;html=1;strokeColor=none;fillColor=none;align=center;verticalAlign=middle;whiteSpace=wrap;rounded=0;" parent="1" vertex="1">
          <mxGeometry x="204" y="40" width="210" height="50" as="geometry" />
        </mxCell>
        <mxCell id="KA_GjHDQiJicOzFnKSso-97" value="&lt;div&gt;&lt;div&gt;&lt;font style=&quot;font-size: 22px&quot;&gt;Long Lived Keys =&amp;gt;&lt;br&gt;&lt;/font&gt;&lt;/div&gt;&lt;font style=&quot;font-size: 22px&quot;&gt;Unauditable&lt;/font&gt;&lt;/div&gt;&lt;div&gt;&lt;br&gt;&lt;/div&gt;" style="text;html=1;strokeColor=none;fillColor=none;align=center;verticalAlign=middle;whiteSpace=wrap;rounded=0;" parent="1" vertex="1">
          <mxGeometry x="704" y="40" width="360" height="50" as="geometry" />
        </mxCell>
        <mxCell id="KA_GjHDQiJicOzFnKSso-135" value="" style="swimlane;html=1;startSize=20;horizontal=0;childLayout=flowLayout;flowOrientation=west;resizable=0;interRankCellSpacing=50;containerType=tree;strokeColor=#000000;strokeWidth=2;" parent="1" vertex="1">
          <mxGeometry x="634" y="400" width="460" height="150" as="geometry" />
        </mxCell>
        <mxCell id="KA_GjHDQiJicOzFnKSso-136" value="Developer" style="whiteSpace=wrap;html=1;fontSize=13;" parent="KA_GjHDQiJicOzFnKSso-135" vertex="1">
          <mxGeometry x="40" y="55" width="100" height="40" as="geometry" />
        </mxCell>
        <mxCell id="KA_GjHDQiJicOzFnKSso-137" value="OTP" style="whiteSpace=wrap;html=1;fontSize=13;" parent="KA_GjHDQiJicOzFnKSso-135" vertex="1">
          <mxGeometry x="190" y="20" width="100" height="40" as="geometry" />
        </mxCell>
        <mxCell id="KA_GjHDQiJicOzFnKSso-138" value="" style="html=1;curved=1;noEdgeStyle=1;orthogonal=1;fontSize=13;" parent="KA_GjHDQiJicOzFnKSso-135" source="KA_GjHDQiJicOzFnKSso-136" target="KA_GjHDQiJicOzFnKSso-137" edge="1">
          <mxGeometry relative="1" as="geometry">
            <Array as="points">
              <mxPoint x="152" y="67.5" />
              <mxPoint x="178" y="40" />
            </Array>
          </mxGeometry>
        </mxCell>
        <mxCell id="KA_GjHDQiJicOzFnKSso-139" value="OTP" style="whiteSpace=wrap;html=1;fontSize=13;" parent="KA_GjHDQiJicOzFnKSso-135" vertex="1">
          <mxGeometry x="190" y="90" width="100" height="40" as="geometry" />
        </mxCell>
        <mxCell id="KA_GjHDQiJicOzFnKSso-140" value="" style="html=1;curved=1;noEdgeStyle=1;orthogonal=1;fontSize=13;" parent="KA_GjHDQiJicOzFnKSso-135" source="KA_GjHDQiJicOzFnKSso-136" target="KA_GjHDQiJicOzFnKSso-139" edge="1">
          <mxGeometry relative="1" as="geometry">
            <Array as="points">
              <mxPoint x="152" y="82.5" />
              <mxPoint x="178" y="110" />
            </Array>
          </mxGeometry>
        </mxCell>
        <mxCell id="KA_GjHDQiJicOzFnKSso-141" value="INSTANCE" style="whiteSpace=wrap;html=1;" parent="KA_GjHDQiJicOzFnKSso-135" vertex="1">
          <mxGeometry x="340" y="90" width="100" height="40" as="geometry" />
        </mxCell>
        <mxCell id="KA_GjHDQiJicOzFnKSso-142" value="" style="html=1;curved=1;noEdgeStyle=1;orthogonal=1;strokeColor=none;fontSize=13;" parent="KA_GjHDQiJicOzFnKSso-135" source="KA_GjHDQiJicOzFnKSso-137" target="KA_GjHDQiJicOzFnKSso-141" edge="1">
          <mxGeometry relative="1" as="geometry">
            <Array as="points">
              <mxPoint x="302" y="47.5" />
              <mxPoint x="328" y="102.5" />
            </Array>
          </mxGeometry>
        </mxCell>
        <mxCell id="KA_GjHDQiJicOzFnKSso-143" value="" style="html=1;curved=1;noEdgeStyle=1;orthogonal=1;fontSize=13;" parent="KA_GjHDQiJicOzFnKSso-135" source="KA_GjHDQiJicOzFnKSso-139" target="KA_GjHDQiJicOzFnKSso-141" edge="1">
          <mxGeometry relative="1" as="geometry">
            <Array as="points">
              <mxPoint x="302" y="110" />
              <mxPoint x="328" y="117.5" />
            </Array>
          </mxGeometry>
        </mxCell>
        <mxCell id="KA_GjHDQiJicOzFnKSso-144" value="INSTANCE" style="whiteSpace=wrap;html=1;" parent="KA_GjHDQiJicOzFnKSso-135" vertex="1">
          <mxGeometry x="340" y="20" width="100" height="40" as="geometry" />
        </mxCell>
        <mxCell id="KA_GjHDQiJicOzFnKSso-145" value="" style="html=1;curved=1;noEdgeStyle=1;orthogonal=1;fontSize=13;" parent="KA_GjHDQiJicOzFnKSso-135" source="KA_GjHDQiJicOzFnKSso-137" target="KA_GjHDQiJicOzFnKSso-144" edge="1">
          <mxGeometry relative="1" as="geometry">
            <mxPoint x="810" y="300" as="sourcePoint" />
            <mxPoint x="860" y="327.5" as="targetPoint" />
            <Array as="points">
              <mxPoint x="302" y="32.5" />
              <mxPoint x="328" y="40" />
            </Array>
          </mxGeometry>
        </mxCell>
        <mxCell id="KA_GjHDQiJicOzFnKSso-146" value="&lt;div&gt;&lt;font style=&quot;font-size: 22px&quot;&gt;OTP Complex&lt;/font&gt;&lt;/div&gt;&lt;div&gt;&lt;font style=&quot;font-size: 22px&quot;&gt;and Expensive&lt;/font&gt;&lt;/div&gt; " style="text;html=1;strokeColor=none;fillColor=none;align=center;verticalAlign=middle;whiteSpace=wrap;rounded=0;" parent="1" vertex="1">
          <mxGeometry x="734" y="334" width="320" height="50" as="geometry" />
        </mxCell>
        <mxCell id="KA_GjHDQiJicOzFnKSso-147" value="" style="swimlane;html=1;startSize=20;horizontal=0;childLayout=flowLayout;flowOrientation=west;resizable=0;interRankCellSpacing=50;containerType=tree;strokeColor=#000000;strokeWidth=2;" parent="1" vertex="1">
          <mxGeometry x="634" y="150" width="460" height="150" as="geometry" />
        </mxCell>
        <mxCell id="KA_GjHDQiJicOzFnKSso-148" value="Developer" style="whiteSpace=wrap;html=1;fontSize=13;" parent="KA_GjHDQiJicOzFnKSso-147" vertex="1">
          <mxGeometry x="40" y="55" width="100" height="40" as="geometry" />
        </mxCell>
        <mxCell id="KA_GjHDQiJicOzFnKSso-149" value="PEM Key1" style="whiteSpace=wrap;html=1;fontSize=13;" parent="KA_GjHDQiJicOzFnKSso-147" vertex="1">
          <mxGeometry x="190" y="90" width="100" height="40" as="geometry" />
        </mxCell>
        <mxCell id="KA_GjHDQiJicOzFnKSso-150" value="" style="html=1;curved=1;noEdgeStyle=1;orthogonal=1;fontSize=13;" parent="KA_GjHDQiJicOzFnKSso-147" source="KA_GjHDQiJicOzFnKSso-148" target="KA_GjHDQiJicOzFnKSso-149" edge="1">
          <mxGeometry relative="1" as="geometry">
            <Array as="points">
              <mxPoint x="152" y="82.5" />
              <mxPoint x="178" y="110" />
            </Array>
          </mxGeometry>
        </mxCell>
        <mxCell id="KA_GjHDQiJicOzFnKSso-151" value="PEM Key1" style="whiteSpace=wrap;html=1;fontSize=13;" parent="KA_GjHDQiJicOzFnKSso-147" vertex="1">
          <mxGeometry x="190" y="20" width="100" height="40" as="geometry" />
        </mxCell>
        <mxCell id="KA_GjHDQiJicOzFnKSso-152" value="" style="html=1;curved=1;noEdgeStyle=1;orthogonal=1;fontSize=13;" parent="KA_GjHDQiJicOzFnKSso-147" source="KA_GjHDQiJicOzFnKSso-148" target="KA_GjHDQiJicOzFnKSso-151" edge="1">
          <mxGeometry relative="1" as="geometry">
            <Array as="points">
              <mxPoint x="152" y="67.5" />
              <mxPoint x="178" y="40" />
            </Array>
          </mxGeometry>
        </mxCell>
        <mxCell id="KA_GjHDQiJicOzFnKSso-153" value="INSTANCE" style="whiteSpace=wrap;html=1;" parent="KA_GjHDQiJicOzFnKSso-147" vertex="1">
          <mxGeometry x="340" y="20" width="100" height="40" as="geometry" />
        </mxCell>
        <mxCell id="KA_GjHDQiJicOzFnKSso-154" value="" style="html=1;curved=1;noEdgeStyle=1;orthogonal=1;strokeColor=none;fontSize=13;" parent="KA_GjHDQiJicOzFnKSso-147" source="KA_GjHDQiJicOzFnKSso-149" target="KA_GjHDQiJicOzFnKSso-153" edge="1">
          <mxGeometry relative="1" as="geometry">
            <Array as="points">
              <mxPoint x="302" y="102.5" />
              <mxPoint x="328" y="47.5" />
            </Array>
          </mxGeometry>
        </mxCell>
        <mxCell id="KA_GjHDQiJicOzFnKSso-155" value="" style="html=1;curved=1;noEdgeStyle=1;orthogonal=1;fontSize=13;" parent="KA_GjHDQiJicOzFnKSso-147" source="KA_GjHDQiJicOzFnKSso-151" target="KA_GjHDQiJicOzFnKSso-153" edge="1">
          <mxGeometry relative="1" as="geometry">
            <Array as="points">
              <mxPoint x="302" y="40" />
              <mxPoint x="328" y="32.5" />
            </Array>
          </mxGeometry>
        </mxCell>
        <mxCell id="KA_GjHDQiJicOzFnKSso-156" value="INSTANCE" style="whiteSpace=wrap;html=1;" parent="KA_GjHDQiJicOzFnKSso-147" vertex="1">
          <mxGeometry x="340" y="90" width="100" height="40" as="geometry" />
        </mxCell>
        <mxCell id="KA_GjHDQiJicOzFnKSso-157" value="" style="html=1;curved=1;noEdgeStyle=1;orthogonal=1;fontSize=13;" parent="KA_GjHDQiJicOzFnKSso-147" source="KA_GjHDQiJicOzFnKSso-149" target="KA_GjHDQiJicOzFnKSso-156" edge="1">
          <mxGeometry relative="1" as="geometry">
            <mxPoint x="970" y="380" as="sourcePoint" />
            <mxPoint x="1020" y="407.5" as="targetPoint" />
            <Array as="points">
              <mxPoint x="302" y="117.5" />
              <mxPoint x="328" y="110" />
            </Array>
          </mxGeometry>
        </mxCell>
        <mxCell id="Ncn3R2jLvJK-lF08CTSO-1" value="" style="swimlane;html=1;startSize=20;horizontal=0;childLayout=flowLayout;flowOrientation=west;resizable=0;interRankCellSpacing=50;containerType=tree;strokeColor=#000000;strokeWidth=2;" parent="1" vertex="1">
          <mxGeometry x="100" y="150" width="460" height="360" as="geometry" />
        </mxCell>
        <mxCell id="Ncn3R2jLvJK-lF08CTSO-2" value="Developer" style="whiteSpace=wrap;html=1;fontSize=13;" parent="Ncn3R2jLvJK-lF08CTSO-1" vertex="1">
          <mxGeometry x="40" y="160" width="100" height="40" as="geometry" />
        </mxCell>
        <mxCell id="Ncn3R2jLvJK-lF08CTSO-3" value="PASSWORD1" style="whiteSpace=wrap;html=1;fontSize=13;" parent="Ncn3R2jLvJK-lF08CTSO-1" vertex="1">
          <mxGeometry x="190" y="90" width="100" height="40" as="geometry" />
        </mxCell>
        <mxCell id="Ncn3R2jLvJK-lF08CTSO-4" value="" style="html=1;curved=1;noEdgeStyle=1;orthogonal=1;fontSize=13;" parent="Ncn3R2jLvJK-lF08CTSO-1" source="Ncn3R2jLvJK-lF08CTSO-2" target="Ncn3R2jLvJK-lF08CTSO-3" edge="1">
          <mxGeometry relative="1" as="geometry">
            <Array as="points">
              <mxPoint x="152" y="170" />
              <mxPoint x="178" y="110" />
            </Array>
          </mxGeometry>
        </mxCell>
        <mxCell id="Ncn3R2jLvJK-lF08CTSO-5" value="PASSWORD2" style="whiteSpace=wrap;html=1;fontSize=13;" parent="Ncn3R2jLvJK-lF08CTSO-1" vertex="1">
          <mxGeometry x="190" y="160" width="100" height="40" as="geometry" />
        </mxCell>
        <mxCell id="Ncn3R2jLvJK-lF08CTSO-6" value="" style="html=1;curved=1;noEdgeStyle=1;orthogonal=1;fontSize=13;" parent="Ncn3R2jLvJK-lF08CTSO-1" source="Ncn3R2jLvJK-lF08CTSO-2" target="Ncn3R2jLvJK-lF08CTSO-5" edge="1">
          <mxGeometry relative="1" as="geometry">
            <Array as="points">
              <mxPoint x="154" y="180" />
              <mxPoint x="178" y="180" />
            </Array>
          </mxGeometry>
        </mxCell>
        <mxCell id="Ncn3R2jLvJK-lF08CTSO-7" value="INSTANCE" style="whiteSpace=wrap;html=1;" parent="Ncn3R2jLvJK-lF08CTSO-1" vertex="1">
          <mxGeometry x="340" y="90" width="100" height="40" as="geometry" />
        </mxCell>
        <mxCell id="Ncn3R2jLvJK-lF08CTSO-8" value="" style="html=1;curved=1;noEdgeStyle=1;orthogonal=1;strokeColor=none;fontSize=13;" parent="Ncn3R2jLvJK-lF08CTSO-1" source="Ncn3R2jLvJK-lF08CTSO-3" target="Ncn3R2jLvJK-lF08CTSO-7" edge="1">
          <mxGeometry relative="1" as="geometry">
            <Array as="points">
              <mxPoint x="304" y="106.25" />
              <mxPoint x="328" y="102.5" />
            </Array>
          </mxGeometry>
        </mxCell>
        <mxCell id="Ncn3R2jLvJK-lF08CTSO-9" value="" style="html=1;curved=1;noEdgeStyle=1;orthogonal=1;fontSize=13;" parent="Ncn3R2jLvJK-lF08CTSO-1" source="Ncn3R2jLvJK-lF08CTSO-5" target="Ncn3R2jLvJK-lF08CTSO-7" edge="1">
          <mxGeometry relative="1" as="geometry">
            <Array as="points">
              <mxPoint x="302" y="170" />
              <mxPoint x="328" y="117.5" />
            </Array>
          </mxGeometry>
        </mxCell>
        <mxCell id="Ncn3R2jLvJK-lF08CTSO-10" value="INSTANCE" style="whiteSpace=wrap;html=1;" parent="Ncn3R2jLvJK-lF08CTSO-1" vertex="1">
          <mxGeometry x="340" y="20" width="100" height="40" as="geometry" />
        </mxCell>
        <mxCell id="Ncn3R2jLvJK-lF08CTSO-11" value="" style="html=1;curved=1;noEdgeStyle=1;orthogonal=1;fontSize=13;" parent="Ncn3R2jLvJK-lF08CTSO-1" source="Ncn3R2jLvJK-lF08CTSO-3" target="Ncn3R2jLvJK-lF08CTSO-10" edge="1">
          <mxGeometry relative="1" as="geometry">
            <mxPoint x="1530" y="630" as="sourcePoint" />
            <mxPoint x="1580" y="657.5" as="targetPoint" />
            <Array as="points">
              <mxPoint x="302" y="98.75" />
              <mxPoint x="328" y="40" />
            </Array>
          </mxGeometry>
        </mxCell>
        <mxCell id="Ncn3R2jLvJK-lF08CTSO-12" value="" style="html=1;curved=1;noEdgeStyle=1;orthogonal=1;fontSize=13;" parent="Ncn3R2jLvJK-lF08CTSO-1" source="Ncn3R2jLvJK-lF08CTSO-2" target="Ncn3R2jLvJK-lF08CTSO-13" edge="1">
          <mxGeometry relative="1" as="geometry">
            <Array as="points">
              <mxPoint x="152" y="190" />
              <mxPoint x="178" y="250" />
            </Array>
            <mxPoint x="760" y="532.5" as="sourcePoint" />
          </mxGeometry>
        </mxCell>
        <mxCell id="Ncn3R2jLvJK-lF08CTSO-13" value="PASSWORD3" style="whiteSpace=wrap;html=1;fontSize=13;" parent="Ncn3R2jLvJK-lF08CTSO-1" vertex="1">
          <mxGeometry x="190" y="230" width="100" height="40" as="geometry" />
        </mxCell>
        <mxCell id="Ncn3R2jLvJK-lF08CTSO-14" value="" style="html=1;curved=1;noEdgeStyle=1;orthogonal=1;fontSize=13;" parent="Ncn3R2jLvJK-lF08CTSO-1" source="Ncn3R2jLvJK-lF08CTSO-13" target="Ncn3R2jLvJK-lF08CTSO-15" edge="1">
          <mxGeometry relative="1" as="geometry">
            <Array as="points">
              <mxPoint x="302" y="250" />
              <mxPoint x="328" y="320" />
            </Array>
            <mxPoint x="720" y="550" as="sourcePoint" />
          </mxGeometry>
        </mxCell>
        <mxCell id="Ncn3R2jLvJK-lF08CTSO-15" value="INSTANCE" style="whiteSpace=wrap;html=1;fontSize=13;" parent="Ncn3R2jLvJK-lF08CTSO-1" vertex="1">
          <mxGeometry x="340" y="300" width="100" height="40" as="geometry" />
        </mxCell>
        <mxCell id="Ncn3R2jLvJK-lF08CTSO-16" value="" style="html=1;curved=1;noEdgeStyle=1;orthogonal=1;strokeColor=none;fontSize=13;" parent="Ncn3R2jLvJK-lF08CTSO-1" source="Ncn3R2jLvJK-lF08CTSO-3" target="Ncn3R2jLvJK-lF08CTSO-17" edge="1">
          <mxGeometry relative="1" as="geometry">
            <Array as="points">
              <mxPoint x="304" y="113.75" />
              <mxPoint x="328" y="172.5" />
            </Array>
            <mxPoint x="830" y="457.5" as="sourcePoint" />
          </mxGeometry>
        </mxCell>
        <mxCell id="Ncn3R2jLvJK-lF08CTSO-17" value="INSTANCE" style="whiteSpace=wrap;html=1;" parent="Ncn3R2jLvJK-lF08CTSO-1" vertex="1">
          <mxGeometry x="340" y="160" width="100" height="40" as="geometry" />
        </mxCell>
        <mxCell id="Ncn3R2jLvJK-lF08CTSO-18" value="" style="html=1;curved=1;noEdgeStyle=1;orthogonal=1;strokeColor=none;fontSize=13;" parent="Ncn3R2jLvJK-lF08CTSO-1" source="Ncn3R2jLvJK-lF08CTSO-3" target="Ncn3R2jLvJK-lF08CTSO-19" edge="1">
          <mxGeometry relative="1" as="geometry">
            <Array as="points">
              <mxPoint x="302" y="121.25" />
              <mxPoint x="328" y="242.5" />
            </Array>
            <mxPoint x="790" y="475" as="sourcePoint" />
          </mxGeometry>
        </mxCell>
        <mxCell id="Ncn3R2jLvJK-lF08CTSO-19" value="INSTANCE" style="whiteSpace=wrap;html=1;" parent="Ncn3R2jLvJK-lF08CTSO-1" vertex="1">
          <mxGeometry x="340" y="230" width="100" height="40" as="geometry" />
        </mxCell>
        <mxCell id="Ncn3R2jLvJK-lF08CTSO-22" value="" style="html=1;curved=1;noEdgeStyle=1;orthogonal=1;fontSize=13;exitX=1;exitY=0.5;exitDx=0;exitDy=0;entryX=0;entryY=0.75;entryDx=0;entryDy=0;" parent="Ncn3R2jLvJK-lF08CTSO-1" source="Ncn3R2jLvJK-lF08CTSO-5" target="Ncn3R2jLvJK-lF08CTSO-19" edge="1">
          <mxGeometry relative="1" as="geometry">
            <Array as="points">
              <mxPoint x="302" y="190" />
              <mxPoint x="328" y="257.5" />
            </Array>
            <mxPoint x="760" y="560" as="sourcePoint" />
            <mxPoint x="810" y="637.5" as="targetPoint" />
          </mxGeometry>
        </mxCell>
        <mxCell id="Ncn3R2jLvJK-lF08CTSO-23" value="" style="html=1;curved=1;noEdgeStyle=1;orthogonal=1;fontSize=13;exitX=1;exitY=0.5;exitDx=0;exitDy=0;entryX=0;entryY=0.5;entryDx=0;entryDy=0;" parent="Ncn3R2jLvJK-lF08CTSO-1" source="Ncn3R2jLvJK-lF08CTSO-5" target="Ncn3R2jLvJK-lF08CTSO-17" edge="1">
          <mxGeometry relative="1" as="geometry">
            <Array as="points">
              <mxPoint x="304" y="180" />
              <mxPoint x="328" y="187.5" />
            </Array>
            <mxPoint x="600" y="472.5" as="sourcePoint" />
            <mxPoint x="650" y="487.5" as="targetPoint" />
          </mxGeometry>
        </mxCell>
      </root>
    </mxGraphModel>
  </diagram>
</mxfile>
